<svg id="visual" viewBox="0 0 900 600" width="900" height="600" xmlns="http://www.w3.org/2000/svg" xmlns:xlink="http://www.w3.org/1999/xlink" version="1.1"><rect x="0" y="0" width="900" height="600" fill="#6e0298"></rect><path d="M0 494L21.5 488.7C43 483.3 86 472.7 128.8 465.2C171.7 457.7 214.3 453.3 257.2 452C300 450.7 343 452.3 385.8 456.7C428.7 461 471.3 468 514.2 475.2C557 482.3 600 489.7 642.8 493.8C685.7 498 728.3 499 771.2 493.2C814 487.3 857 474.7 878.5 468.3L900 462L900 601L878.5 601C857 601 814 601 771.2 601C728.3 601 685.7 601 642.8 601C600 601 557 601 514.2 601C471.3 601 428.7 601 385.8 601C343 601 300 601 257.2 601C214.3 601 171.7 601 128.8 601C86 601 43 601 21.5 601L0 601Z" fill="#9b00ff"></path><path d="M0 497L21.5 494.7C43 492.3 86 487.7 128.8 483.3C171.7 479 214.3 475 257.2 478.7C300 482.3 343 493.7 385.8 495.7C428.7 497.7 471.3 490.3 514.2 491.3C557 492.3 600 501.7 642.8 503.3C685.7 505 728.3 499 771.2 492.3C814 485.7 857 478.3 878.5 474.7L900 471L900 601L878.5 601C857 601 814 601 771.2 601C728.3 601 685.7 601 642.8 601C600 601 557 601 514.2 601C471.3 601 428.7 601 385.8 601C343 601 300 601 257.2 601C214.3 601 171.7 601 128.8 601C86 601 43 601 21.5 601L0 601Z" fill="#ad3fff"></path><path d="M0 503L21.5 500.2C43 497.3 86 491.7 128.8 488.3C171.7 485 214.3 484 257.2 484.7C300 485.3 343 487.7 385.8 487.8C428.7 488 471.3 486 514.2 490C557 494 600 504 642.8 508.7C685.7 513.3 728.3 512.7 771.2 513.3C814 514 857 516 878.5 517L900 518L900 601L878.5 601C857 601 814 601 771.2 601C728.3 601 685.7 601 642.8 601C600 601 557 601 514.2 601C471.3 601 428.7 601 385.8 601C343 601 300 601 257.2 601C214.3 601 171.7 601 128.8 601C86 601 43 601 21.5 601L0 601Z" fill="#bd5fff"></path><path d="M0 523L21.5 522.5C43 522 86 521 128.8 519.7C171.7 518.3 214.3 516.7 257.2 518.7C300 520.7 343 526.3 385.8 523.3C428.7 520.3 471.3 508.7 514.2 506.7C557 504.7 600 512.3 642.8 515.3C685.7 518.3 728.3 516.7 771.2 514.3C814 512 857 509 878.5 507.5L900 506L900 601L878.5 601C857 601 814 601 771.2 601C728.3 601 685.7 601 642.8 601C600 601 557 601 514.2 601C471.3 601 428.7 601 385.8 601C343 601 300 601 257.2 601C214.3 601 171.7 601 128.8 601C86 601 43 601 21.5 601L0 601Z" fill="#cb7cff"></path><path d="M0 539L21.5 539.7C43 540.3 86 541.7 128.8 540C171.7 538.3 214.3 533.7 257.2 529.5C300 525.3 343 521.7 385.8 520.5C428.7 519.3 471.3 520.7 514.2 519.8C557 519 600 516 642.8 518.5C685.7 521 728.3 529 771.2 529.3C814 529.7 857 522.3 878.5 518.7L900 515L900 601L878.5 601C857 601 814 601 771.2 601C728.3 601 685.7 601 642.8 601C600 601 557 601 514.2 601C471.3 601 428.7 601 385.8 601C343 601 300 601 257.2 601C214.3 601 171.7 601 128.8 601C86 601 43 601 21.5 601L0 601Z" fill="#d797ff"></path><path d="M0 547L21.5 543.8C43 540.7 86 534.3 128.8 533.5C171.7 532.7 214.3 537.3 257.2 537.2C300 537 343 532 385.8 533C428.7 534 471.3 541 514.2 543.8C557 546.7 600 545.3 642.8 543.2C685.7 541 728.3 538 771.2 538.7C814 539.3 857 543.7 878.5 545.8L900 548L900 601L878.5 601C857 601 814 601 771.2 601C728.3 601 685.7 601 642.8 601C600 601 557 601 514.2 601C471.3 601 428.7 601 385.8 601C343 601 300 601 257.2 601C214.3 601 171.7 601 128.8 601C86 601 43 601 21.5 601L0 601Z" fill="#e3b1ff"></path><path d="M0 558L21.5 556.8C43 555.7 86 553.3 128.8 553.2C171.7 553 214.3 555 257.2 555.2C300 555.3 343 553.7 385.8 554.5C428.7 555.3 471.3 558.7 514.2 560.3C557 562 600 562 642.8 561.7C685.7 561.3 728.3 560.7 771.2 557.5C814 554.3 857 548.7 878.5 545.8L900 543L900 601L878.5 601C857 601 814 601 771.2 601C728.3 601 685.7 601 642.8 601C600 601 557 601 514.2 601C471.3 601 428.7 601 385.8 601C343 601 300 601 257.2 601C214.3 601 171.7 601 128.8 601C86 601 43 601 21.5 601L0 601Z" fill="#edcbff"></path><path d="M0 561L21.5 561.5C43 562 86 563 128.8 564.5C171.7 566 214.3 568 257.2 568.3C300 568.7 343 567.3 385.8 568C428.7 568.7 471.3 571.3 514.2 572.2C557 573 600 572 642.8 572C685.7 572 728.3 573 771.2 572.5C814 572 857 570 878.5 569L900 568L900 601L878.5 601C857 601 814 601 771.2 601C728.3 601 685.7 601 642.8 601C600 601 557 601 514.2 601C471.3 601 428.7 601 385.8 601C343 601 300 601 257.2 601C214.3 601 171.7 601 128.8 601C86 601 43 601 21.5 601L0 601Z" fill="#f6e5ff"></path><path d="M0 576L21.5 575.8C43 575.7 86 575.3 128.8 575.5C171.7 575.7 214.3 576.3 257.2 577.7C300 579 343 581 385.8 581.5C428.7 582 471.3 581 514.2 580.8C557 580.7 600 581.3 642.8 581.7C685.7 582 728.3 582 771.2 581.5C814 581 857 580 878.5 579.5L900 579L900 601L878.5 601C857 601 814 601 771.2 601C728.3 601 685.7 601 642.8 601C600 601 557 601 514.2 601C471.3 601 428.7 601 385.8 601C343 601 300 601 257.2 601C214.3 601 171.7 601 128.8 601C86 601 43 601 21.5 601L0 601Z" fill="#ffffff"></path></svg>