<svg id="visual" viewBox="0 0 960 540" width="960" height="540" xmlns="http://www.w3.org/2000/svg" xmlns:xlink="http://www.w3.org/1999/xlink" version="1.1"><path d="M0 201L14.5 199.2C29 197.3 58 193.7 87.2 176.5C116.3 159.3 145.7 128.7 174.8 126C204 123.3 233 148.7 262 146.8C291 145 320 116 349 117.8C378 119.7 407 152.3 436.2 174.8C465.3 197.3 494.7 209.7 523.8 203.3C553 197 582 172 611 162.2C640 152.3 669 157.7 698 147.7C727 137.7 756 112.3 785.2 118.7C814.3 125 843.7 163 872.8 191C902 219 931 237 945.5 246L960 255L960 0L945.5 0C931 0 902 0 872.8 0C843.7 0 814.3 0 785.2 0C756 0 727 0 698 0C669 0 640 0 611 0C582 0 553 0 523.8 0C494.7 0 465.3 0 436.2 0C407 0 378 0 349 0C320 0 291 0 262 0C233 0 204 0 174.8 0C145.7 0 116.3 0 87.2 0C58 0 29 0 14.5 0L0 0Z" fill="#004cbb"></path><path d="M0 390L14.5 375.5C29 361 58 332 87.2 316.7C116.3 301.3 145.7 299.7 174.8 306C204 312.3 233 326.7 262 319.5C291 312.3 320 283.7 349 282.8C378 282 407 309 436.2 328.8C465.3 348.7 494.7 361.3 523.8 346.8C553 332.3 582 290.7 611 273.5C640 256.3 669 263.7 698 266.5C727 269.3 756 267.7 785.2 270.3C814.3 273 843.7 280 872.8 293.5C902 307 931 327 945.5 337L960 347L960 253L945.5 244C931 235 902 217 872.8 189C843.7 161 814.3 123 785.2 116.7C756 110.3 727 135.7 698 145.7C669 155.7 640 150.3 611 160.2C582 170 553 195 523.8 201.3C494.7 207.7 465.3 195.3 436.2 172.8C407 150.3 378 117.7 349 115.8C320 114 291 143 262 144.8C233 146.7 204 121.3 174.8 124C145.7 126.7 116.3 157.3 87.2 174.5C58 191.7 29 195.3 14.5 197.2L0 199Z" fill="#2573ff"></path><path d="M0 449L14.5 442.7C29 436.3 58 423.7 87.2 426.3C116.3 429 145.7 447 174.8 445.3C204 443.7 233 422.3 262 410.7C291 399 320 397 349 397C378 397 407 399 436.2 407.2C465.3 415.3 494.7 429.7 523.8 420.7C553 411.7 582 379.3 611 372.2C640 365 669 383 698 386.5C727 390 756 379 785.2 382.5C814.3 386 843.7 404 872.8 409.5C902 415 931 408 945.5 404.5L960 401L960 345L945.5 335C931 325 902 305 872.8 291.5C843.7 278 814.3 271 785.2 268.3C756 265.7 727 267.3 698 264.5C669 261.7 640 254.3 611 271.5C582 288.7 553 330.3 523.8 344.8C494.7 359.3 465.3 346.7 436.2 326.8C407 307 378 280 349 280.8C320 281.7 291 310.3 262 317.5C233 324.7 204 310.3 174.8 304C145.7 297.7 116.3 299.3 87.2 314.7C58 330 29 359 14.5 373.5L0 388Z" fill="#6198ff"></path><path d="M0 503L14.5 503C29 503 58 503 87.2 502.2C116.3 501.3 145.7 499.7 174.8 497C204 494.3 233 490.7 262 483.5C291 476.3 320 465.7 349 466.5C378 467.3 407 479.7 436.2 485C465.3 490.3 494.7 488.7 523.8 478.8C553 469 582 451 611 443.8C640 436.7 669 440.3 698 443C727 445.7 756 447.3 785.2 457.2C814.3 467 843.7 485 872.8 486C902 487 931 471 945.5 463L960 455L960 399L945.5 402.5C931 406 902 413 872.8 407.5C843.7 402 814.3 384 785.2 380.5C756 377 727 388 698 384.5C669 381 640 363 611 370.2C582 377.3 553 409.7 523.8 418.7C494.7 427.7 465.3 413.3 436.2 405.2C407 397 378 395 349 395C320 395 291 397 262 408.7C233 420.3 204 441.7 174.8 443.3C145.7 445 116.3 427 87.2 424.3C58 421.7 29 434.3 14.5 440.7L0 447Z" fill="#2573ff"></path><path d="M0 541L14.5 541C29 541 58 541 87.2 541C116.3 541 145.7 541 174.8 541C204 541 233 541 262 541C291 541 320 541 349 541C378 541 407 541 436.2 541C465.3 541 494.7 541 523.8 541C553 541 582 541 611 541C640 541 669 541 698 541C727 541 756 541 785.2 541C814.3 541 843.7 541 872.8 541C902 541 931 541 945.5 541L960 541L960 453L945.5 461C931 469 902 485 872.8 484C843.7 483 814.3 465 785.2 455.2C756 445.3 727 443.7 698 441C669 438.3 640 434.7 611 441.8C582 449 553 467 523.8 476.8C494.7 486.7 465.3 488.3 436.2 483C407 477.7 378 465.3 349 464.5C320 463.7 291 474.3 262 481.5C233 488.7 204 492.3 174.8 495C145.7 497.7 116.3 499.3 87.2 500.2C58 501 29 501 14.5 501L0 501Z" fill="#004cbb"></path></svg>